<?xml version="1.0" encoding="utf-8"?>
<!-- Generator: Adobe Illustrator 18.0.0, SVG Export Plug-In . SVG Version: 6.00 Build 0)  -->
<!DOCTYPE svg PUBLIC "-//W3C//DTD SVG 1.1//EN" "http://www.w3.org/Graphics/SVG/1.1/DTD/svg11.dtd">
<svg version="1.1" id="Layer_1" xmlns="http://www.w3.org/2000/svg" xmlns:xlink="http://www.w3.org/1999/xlink" x="0px" y="0px"
	 viewBox="0 0 563.3 398" enable-background="new 0 0 563.3 398" xml:space="preserve">
<g>
	<g>
		<path fill="#0D5D63" d="M252.7,229.8c-16.4,0-27.3-12.7-27.3-30.6c0-18,10.9-30.8,27.3-30.8c16.4,0,27.3,12.7,27.3,30.8
			C280,217.1,269.1,229.8,252.7,229.8z M261,171.2c-2.8-2.2-5.7-2.4-8.3-2.4c-2.6,0-5.6,0.3-8.3,2.4c-5.4,4.2-8.8,11.9-8.8,28
			c0,16,3.4,23.5,8.8,27.8c2.7,2.1,5.7,2.4,8.3,2.4c2.5,0,5.6-0.3,8.3-2.4c5.4-4.2,8.8-11.8,8.8-27.8
			C269.8,183.1,266.3,175.4,261,171.2z"/>
	</g>
	<g>
		<path fill="#0D5D63" d="M325.8,166.4c8.9,0,12.9,2.8,12.9,6.9c0,2.2-1.6,3.9-3.9,3.9c-2.4,0-4.3-1.7-4.4-4.8
			c-0.1-1.6,0.1-3.1-0.5-4.1c-0.7-1.3-2.5-1.5-4.2-1.5c-3.6,0-5.9,1.3-7.2,3.3c-1.1,1.7-1.6,4.3-1.6,8.1v12.3h21.2
			c0.6,0,0.6,0,0.6,0.6c0,1.3-0.1,3.2-0.1,5.6v22.8c0,1.8-0.1,3.7,0.3,5c0.4,2.3,1.3,2.9,3,3.6c0.4,0.2,0.6,0.2,1.3,0.3v0.2h-16.7
			v-0.2c0.5-0.1,0.8-0.1,1.3-0.3c1.7-0.7,2.5-1.3,3-3.6c0.4-1.3,0.3-3.2,0.3-5v-17.8c0-1.6,0.1-6-0.1-7.4c-0.3-1.6-0.6-2.2-1.5-2.9
			c-0.6-0.4-1.2-0.5-1.7-0.6h-10.7v25.9c0,2.5,0.3,5.7,0.5,7.2c0.5,2.4,1.2,3.1,3.1,3.8c0.8,0.3,1.9,0.4,2.6,0.4v0.4h-19.5v-0.4
			c0.6-0.1,1.3-0.2,2-0.4c1.9-0.8,2.6-1.2,3.1-3.6c0.4-1.9,0.4-4.8,0.4-7.4v-25.9h-14v26.3c0,2.4,0.2,5.7,0.4,7.2
			c0.5,2.3,1.1,3,3.1,3.6c0.9,0.3,1.3,0.4,1.9,0.4v0.2h-17.7v-0.2l1.3-0.4c1.8-0.7,2.4-1.1,3.1-3.5c0.4-1.4,0.3-5.2,0.3-7.3v-26.3
			h-5v-0.4h5v-7.7c0-5.3,1.6-9.4,4.2-12.1c2.7-2.8,6.4-4.2,10.6-4.2c2.9,0,5.1,0.3,6.8,0.8c2.2,0.7,3.5,1.9,4.4,3.2
			C315.6,168.6,319.7,166.4,325.8,166.4z M309.7,177.3c-1.6-0.2-2.8-1.3-3.2-2.8c-0.3-0.8-0.4-1.8-0.4-2.8c-0.2-1.7-0.1-3.1-0.7-3.9
			c-0.6-0.8-1.6-1.1-3.1-1.1c-2.5,0-4.5,1.5-5.7,3.9c-0.9,1.8-1.3,4.1-1.3,6.7v13h14V183C309.2,180.8,309.3,178.9,309.7,177.3z"/>
	</g>
	<g>
		<path fill="#0D5D63" d="M362.3,229.3c-4.9,0-9.3-1.9-12.2-4.8c-3.7-3.8-5.1-9.1-5.1-15.5c0-12.2,9.3-19.4,17.4-19.4
			c5.6,0,9.7,2.1,11.3,4c1.3,1.5,1.9,2.9,1.9,4.1c0,2.8-2.1,3.9-3.7,3.9c-3.1,0-4.1-1.9-4.5-4.8c-0.7-5.1-1.5-6.9-5.4-6.9
			c-1.5,0-3.9,0.6-5.4,2.2c-2.1,2.3-3.1,8.3-3.1,15.3c0,8.8,1.1,14.5,3.4,17.9c1.7,2.5,3.9,3.1,5.9,3.1c8.1,0,11.7-7,12.9-12.3
			l0.4,0.1C374.5,223.5,369.8,229.3,362.3,229.3z"/>
	</g>
	<g>
		<path fill="#0D5D63" d="M376.8,228.5v-0.2c0.5-0.1,0.8-0.1,1.3-0.3c1.7-0.7,2.5-1.3,3-3.6c0.4-1.3,0.3-3.2,0.3-5v-17.8
			c0-1.6,0.1-6-0.1-7.4c-0.3-1.7-0.7-2.3-1.5-2.9c-0.9-0.7-1.8-0.7-2.3-0.8v-0.2h11.1c0.6,0,0.6,0,0.6,0.6c0,1.3-0.1,3.2-0.1,5.6
			v22.8c0,1.8-0.1,3.7,0.3,5c0.4,2.3,1.3,2.9,3,3.6c0.4,0.2,0.6,0.2,1.3,0.3v0.2H376.8z M385.1,179.4c-2.1,0-4.7-1.7-4.7-4.5
			c0-2.9,2.6-4.7,4.7-4.7c2.2,0,4.8,1.5,4.8,4.7C389.9,178,387.2,179.4,385.1,179.4z"/>
	</g>
	<g>
		<path fill="#0D5D63" d="M400,201.5c0-1.6,0-5.8-0.2-7.2c-0.3-1.7-0.7-2.3-1.4-2.9c-1-0.7-1.8-0.7-2.3-0.8v-0.2h11.2
			c0.5,0,0.5,0.1,0.5,0.5l-0.2,9.2h0.1c1-3.9,3.5-6.6,5.2-7.8c1.9-1.4,4.7-2.7,7.8-2.7c3.6,0,5.8,0.7,7.4,2.7
			c1.2,1.3,2.2,4.3,2.2,8.9v15.9c0,2.5-0.2,5.4,0.3,7.2c0.4,2.4,1.3,3,3,3.6c0.6,0.3,0.8,0.4,1.3,0.4v0.2h-16.6v-0.2
			c0.4-0.1,0.6-0.2,1.3-0.4c1.9-0.7,2.5-1.2,3-3.6c0.4-1.8,0.3-4.7,0.3-7.2v-16c0-4.1-0.1-5.7-1.2-7.1c-0.9-1.3-2.2-2.1-4.8-2.1
			c-4.4,0-8.3,4.3-9,10.3c-0.3,2.2-0.2,4.6-0.2,7.3v7.5c0,2.5-0.1,5.5,0.4,7.4c0.4,2.2,1.1,2.7,3,3.4l1.3,0.4v0.2h-16.7v-0.2
			l1.3-0.4c1.9-0.7,2.5-1.1,3.1-3.5c0.4-1.6,0.2-4.8,0.2-7.3V201.5z"/>
	</g>
	<g>
		<path fill="#0D5D63" d="M462,229.3c-2.2,0-3.9-0.1-4.9-0.7c-1.2-0.6-2-2.4-1.8-5.7h-0.1c-0.9,3.1-4,6.5-9.8,6.5
			c-5.3,0-10-3.1-10-9.5c0-2.4,0.7-4.3,2.2-5.7c2.8-2.6,6.6-2.8,10.4-4.3c5.1-2,7.4-4.4,7.4-7.1c0-1.3,0.1-5.6,0.1-6.9
			c0-4.8-1.3-5.7-5.1-5.7c-1.9,0-3.1,0.4-3.9,1.3c-0.9,0.9-1.3,2.9-1.3,5.6c0,2.8-1.5,3.9-4,3.9c-2,0-3.6-1.1-3.6-3.4
			c0-1.5,0.5-2.6,1.4-3.7c2-2.5,7.4-4,11.3-4c6.6,0,13.1,2.4,13.1,8.8c0,3-0.2,17.1-0.2,22.5c0,3.9,0.1,5.4,0.9,6.2
			c0.4,0.5,1.2,0.8,2,0.8c0.8,0,1.6-0.2,2.3-0.6v0.2C467.6,228.4,464.8,229.3,462,229.3z M449.6,209.7c-2.5,1.3-3.6,2.2-4.4,3.5
			c-0.9,1.4-1.4,3.9-1.4,6.4c0,5.1,2,7.9,5.6,7.9c0.7,0,1.5-0.1,2.2-0.4c1.9-1,3.7-3.9,3.7-6.7l0.1-15.1
			C454.1,207.2,452,208.4,449.6,209.7z"/>
	</g>
</g>
<g>
	<polygon fill="#0D5D63" points="103.5,205.3 100.7,204.1 105.2,193.6 106.8,193.4 107.4,193.9 114.6,201.6 112.4,203.7 
		106.8,197.7 	"/>
</g>
<g>
	<g>
		<g>
			<path fill="#0D5D63" d="M152.7,159.2h-85v-36.6h85V159.2z M70.8,156.2h79v-30.6h-79V156.2z"/>
		</g>
		<g>
			<rect x="176.3" y="95.3" fill="#0D5D63" width="3" height="200.6"/>
		</g>
	</g>
	<g>
		<path fill="#0D5D63" d="M562.3,397.1H-1v-398h563.3V397.1z M2,394.1h557.3V2.1H2V394.1z"/>
	</g>
	<g>
		<rect x="40" y="0.6" fill="#0D5D63" width="3" height="395"/>
	</g>
	<g>
		<rect x="518.1" y="0.6" fill="#0D5D63" width="3" height="395"/>
	</g>
	<g>
		<rect x="176.3" y="295.8" fill="#0D5D63" width="3" height="99.8"/>
	</g>
	<g>
		<rect x="41.5" y="93.8" fill="#0D5D63" width="478.1" height="3"/>
	</g>
	<g>
		<rect x="177.8" y="294.3" fill="#0D5D63" width="341.8" height="3"/>
	</g>
	<g>
		<rect x="177.8" y="381.9" fill="#0D5D63" width="383" height="3"/>
	</g>
	<g>
		<rect x="0.5" y="381.9" fill="#0D5D63" width="41" height="3"/>
	</g>
	<g>
		<rect x="41.5" y="12.7" fill="#0D5D63" width="478.1" height="3"/>
	</g>
	<g>
		<path fill="#0D5D63" d="M394.4,370.2h-91.9v-44.3h91.9V370.2z M305.5,367.2h85.9v-38.3h-85.9V367.2z"/>
	</g>
	<g>
		<path fill="#0D5D63" d="M504.4,370.2h-91.9v-44.3h91.9V370.2z M415.5,367.2h85.9v-38.3h-85.9V367.2z"/>
	</g>
	<g>
		<path fill="#0D5D63" d="M284.8,370.2H193v-44.3h91.9V370.2z M196,367.2h85.9v-38.3H196V367.2z"/>
	</g>
	<g>
		<path fill="#0D5D63" d="M29.1,121.7H12.8V39.3h16.3V121.7z M15.8,118.7h10.3V42.3H15.8V118.7z"/>
	</g>
	<g>
		<path fill="#0D5D63" d="M29.1,310.2H12.8V180.9h16.3V310.2z M15.8,307.2h10.3V183.9H15.8V307.2z"/>
	</g>
	<g>
		<path fill="#0D5D63" d="M29.1,370.8H12.8v-45.1h16.3V370.8z M15.8,367.8h10.3v-39.1H15.8V367.8z"/>
	</g>
	<g>
		<path fill="#0D5D63" d="M29.1,165.6H12.8V138h16.3V165.6z M15.8,162.6h10.3V141H15.8V162.6z"/>
	</g>
	<g>
		<path fill="#0D5D63" d="M548.1,121.7h-16.3V39.3h16.3V121.7z M534.8,118.7h10.3V42.3h-10.3V118.7z"/>
	</g>
	<g>
		<path fill="#0D5D63" d="M548.1,310.2h-16.3V180.9h16.3V310.2z M534.8,307.2h10.3V183.9h-10.3V307.2z"/>
	</g>
	<g>
		<path fill="#0D5D63" d="M548.1,370.8h-16.3v-45.1h16.3V370.8z M534.8,367.8h10.3v-39.1h-10.3V367.8z"/>
	</g>
	<g>
		<path fill="#0D5D63" d="M548.1,165.6h-16.3V138h16.3V165.6z M534.8,162.6h10.3V141h-10.3V162.6z"/>
	</g>
	<g>
		<rect x="177.8" y="308.4" fill="#0D5D63" width="341.8" height="3"/>
	</g>
	<g>
		<path fill="#0D5D63" d="M502.3,78.8H57.8V30.3h444.5V78.8z M60.8,75.8h438.5V33.3H60.8V75.8z"/>
	</g>
	<g>
		<path fill="#0D5D63" d="M166.1,350.8h-113v-241h113V350.8z M56.2,347.8h107v-235h-107V347.8z"/>
	</g>
	<g>
		<rect x="48.1" y="355.6" fill="#0D5D63" width="123.1" height="3"/>
	</g>
	<g>
		<rect x="41.5" y="377.3" fill="#0D5D63" width="136.3" height="3"/>
	</g>
	<g>
		<rect x="37.7" y="101.8" transform="matrix(0.635 0.7725 -0.7725 0.635 97.331 0.5502)" fill="#0D5D63" width="20.7" height="3"/>
	</g>
	<g>
		
			<rect x="169.7" y="92.9" transform="matrix(0.7724 0.6351 -0.6351 0.7724 104.5494 -85.2385)" fill="#0D5D63" width="3" height="20.7"/>
	</g>
	<g>
		<path fill="#0D5D63" d="M154.2,338.6H65.4V170.8h88.8V338.6z M68.4,335.6h82.8V173.8H68.4V335.6z"/>
	</g>
	<g>
		<rect x="66.9" y="253.9" fill="#0D5D63" width="85.8" height="3"/>
	</g>
	<g>
		<rect x="66.9" y="246.2" fill="#0D5D63" width="85.8" height="3"/>
	</g>
	<g>
		<rect x="46.6" y="357.1" fill="#0D5D63" width="3" height="14.3"/>
	</g>
	<g>
		<rect x="48.1" y="369.9" fill="#0D5D63" width="123.1" height="3"/>
	</g>
	<g>
		<rect x="169.7" y="357.1" fill="#0D5D63" width="3" height="14.3"/>
	</g>
	<g>
		
			<rect x="169.5" y="373.6" transform="matrix(0.6625 0.749 -0.749 0.6625 339.8691 -4.126)" fill="#0D5D63" width="9.9" height="3"/>
	</g>
	<g>
		
			<rect x="43.3" y="370.1" transform="matrix(0.7489 0.6627 -0.6627 0.7489 259.8231 64.5046)" fill="#0D5D63" width="3" height="9.9"/>
	</g>
	<g>
		
			<rect x="163" y="351.9" transform="matrix(0.6625 0.7491 -0.7491 0.6625 321.3934 -6.5165)" fill="#0D5D63" width="9.9" height="3"/>
	</g>
	<g>
		
			<rect x="161.7" y="301.5" transform="matrix(0.6821 0.7313 -0.7313 0.6821 276.0407 -28.9642)" fill="#0D5D63" width="19.3" height="3"/>
	</g>
	<g>
		
			<rect x="161.6" y="287.4" transform="matrix(0.6821 0.7312 -0.7312 0.6821 265.663 -33.3773)" fill="#0D5D63" width="19.3" height="3"/>
	</g>
	<g>
		
			<rect x="49.9" y="348.4" transform="matrix(0.7489 0.6627 -0.6627 0.7489 247.0856 54.6881)" fill="#0D5D63" width="3" height="9.9"/>
	</g>
</g>
<g>
	<path fill="#0D5D63" d="M106.1,212.4l-1.7,0.3l0.6,3l1.7-0.3c0.8-0.2,1.4-1,1.2-1.8C107.8,212.8,106.9,212.3,106.1,212.4z"/>
</g>
<g>
	<path fill="#0D5D63" d="M95.2,214.4c-1.9,0.3-3.1,2.2-2.8,4.1c0.3,1.9,2.2,3.1,4,2.8c1.9-0.3,3.1-2.2,2.8-4
		C98.9,215.4,97,214.1,95.2,214.4z"/>
</g>
<g>
	<path fill="#0D5D63" d="M133.7,197.4L82,206.5l4.5,25.8l51.7-9.1L133.7,197.4z M96.8,223.2c-3,0.6-5.8-1.4-6.3-4.3
		c-0.6-3,1.4-5.8,4.3-6.3c3-0.6,5.8,1.4,6.3,4.4C101.7,219.8,99.8,222.6,96.8,223.2z M107.1,217.2l-1.9,0.3l0.6,3.5
		c0,0.1-0.1,0.3-0.2,0.3l-1.4,0.3c-0.2,0-0.3-0.1-0.3-0.2l-1.8-9.8c0-0.1,0.1-0.3,0.2-0.3l3.5-0.6c1.8-0.3,3.6,0.9,3.9,2.7
		C110.2,215.1,108.9,216.9,107.1,217.2z M119.1,218.9l-6,1.1c-0.2,0-0.3-0.1-0.3-0.2l-1.8-9.8c0-0.1,0.1-0.3,0.2-0.3l6-1.1
		c0.2,0,0.3,0.1,0.3,0.2l0.2,1.2c0,0.1-0.1,0.3-0.2,0.3l-4.4,0.8l0.5,2.4l3.7-0.7c0.1,0,0.3,0.1,0.3,0.2l0.2,1.2
		c0,0.2-0.1,0.3-0.2,0.3l-3.7,0.7l0.5,2.6l4.4-0.8c0.2,0,0.3,0.1,0.3,0.2l0.2,1.2C119.4,218.7,119.3,218.8,119.1,218.9z M130.1,217
		l-0.4,0.1l-7.5-5.7l0,0l1.2,6.4c0,0.1-0.1,0.3-0.2,0.3l-1.3,0.3c-0.1,0-0.3-0.1-0.3-0.2l-1.9-10c0-0.1,0.1-0.3,0.2-0.3l0.4-0.1
		l7.4,5.4l0,0l-1.1-6.1c0-0.1,0.1-0.3,0.2-0.3l1.4-0.3c0.1,0,0.3,0.1,0.3,0.2l1.9,10C130.3,216.8,130.2,217,130.1,217z"/>
</g>
</svg>
