<?xml version="1.0" encoding="utf-8"?>
<!-- Generator: Adobe Illustrator 18.0.0, SVG Export Plug-In . SVG Version: 6.00 Build 0)  -->
<!DOCTYPE svg PUBLIC "-//W3C//DTD SVG 1.1//EN" "http://www.w3.org/Graphics/SVG/1.1/DTD/svg11.dtd">
<svg version="1.1" id="Layer_1" xmlns="http://www.w3.org/2000/svg" xmlns:xlink="http://www.w3.org/1999/xlink" x="0px" y="0px"
	 viewBox="0 0 1600 849.2" enable-background="new 0 0 1600 849.2" xml:space="preserve">
<rect x="-1" y="-0.8" fill="#CADDCB" width="1602.1" height="850"/>
<g>
	<path fill="#0D5D63" d="M513.1,202.1v405.6h573.9V202.1H513.1z M1083.3,591.7H1045V205.8h38.3V591.7z M1041.3,516.9H697.2v-10.7
		h344.1V516.9z M558.5,219.6h482.8v78.8H558.5V219.6z M867.2,502.6V302.2h4.1v200.4H867.2z M863.5,446.2h-127l87.8-87.8l-2.6-2.6
		l-90.4,90.4h-34.1v-144h166.3V446.2z M683.8,489.4V317.3l9.7-11.8v194.4L683.8,489.4z M681,314.8H570.9l-10.4-12.6h130.9L681,314.8
		z M680.1,318.5V557H571.9V318.5H680.1z M571.2,560.7h109.5l3.8,4.3H567.4L571.2,560.7z M565.2,568.6h121.6v10.8H565.2V568.6z
		 M690.5,566.8l-6.7-8.2v-49.5l9.7,10.4V584l-3-3.4V566.8z M683.8,503.7v-8.8l9.7,10.4v8.8L683.8,503.7z M697.2,450.3h30l-16.2,16.2
		l2.6,2.6l18.8-18.8h48.4V466c-4.3,0.3-7.7,3.8-7.7,8.1c0,4.5,3.7,8.2,8.2,8.2c4.5,0,8.2-3.7,8.2-8.2c0-3.3-2-6.1-4.8-7.4h0.2v-16.4
		h78.6v52.3H697.2V450.3z M785.8,474.1c0,2.5-2,4.5-4.5,4.5c-2.5,0-4.5-2-4.5-4.5c0-2.5,2-4.5,4.5-4.5
		C783.8,469.7,785.8,471.7,785.8,474.1z M568.2,317.3v241.3l-6.7,8.2v13.8l-3,3.4V305.5L568.2,317.3z M564.1,583.2h123.6l3.4,3.9
		H560.7L564.1,583.2z M1041.3,502.6H875V302.2h166.3v111.1h-80.9l54.9-54.9l-2.6-2.6l-57.5,57.5h-79.8v4.1H951l-49.1,49.1l2.6,2.6
		l51.7-51.7h1.3v14.2c-4,0.6-7.1,3.9-7.1,8.1c0,4.5,3.7,8.2,8.2,8.2c4.5,0,8.2-3.7,8.2-8.2c0-3.5-2.2-6.4-5.2-7.6v-14.6h79.6V502.6z
		 M958.7,435.1c2.5,0,4.5,2,4.5,4.5c0,2.5-2,4.5-4.5,4.5c-2.5,0-4.5-2-4.5-4.5C954.2,437.2,956.2,435.1,958.7,435.1z M1041.3,215.9
		H558.5v-10.1h482.8V215.9z M558.5,590.7h135v13.3h-135V590.7z M697.2,595.3h344.1v8.7H697.2V595.3z M697.2,591.7v-71h344.1v71
		H697.2z M554.8,205.8v385.8h-38V205.8H554.8z M516.7,595.3h38v8.7h-38V595.3z M1045,604.1v-8.7h38.3v8.7H1045z"/>
	<path fill="#0D5D63" d="M821.9,580.4H916v-45.7h-94.1V580.4z M825.6,538.4h86.7v38.3h-86.7V538.4z"/>
	<path fill="#0D5D63" d="M933.9,534.7v45.7h94.1v-45.7H933.9z M1024.3,576.7h-86.7v-38.3h86.7V576.7z"/>
	<path fill="#0D5D63" d="M710.4,580.4h94.1v-45.7h-94.1V580.4z M714.1,538.4h86.7v38.3h-86.7V538.4z"/>
	<path fill="#0D5D63" d="M544.3,243h-17.2v84.5h17.2V243z M540.6,323.8h-9.8v-77.1h9.8V323.8z"/>
	<path fill="#0D5D63" d="M544.3,387.1h-17.2v132.3h17.2V387.1z M540.6,515.7h-9.8V390.8h9.8V515.7z"/>
	<path fill="#0D5D63" d="M527.1,581h17.2v-46.6h-17.2V581z M530.8,538.2h9.8v39.2h-9.8V538.2z"/>
	<path fill="#0D5D63" d="M544.3,343.4h-17.2v28.7h17.2V343.4z M540.6,368.5h-9.8v-21.3h9.8V368.5z"/>
	<path fill="#0D5D63" d="M1072.4,243h-17.2v84.5h17.2V243z M1068.7,323.8h-9.8v-77.1h9.8V323.8z"/>
	<path fill="#0D5D63" d="M1072.4,519.4V387.1h-17.2v132.3H1072.4z M1058.9,390.8h9.8v124.9h-9.8V390.8z"/>
	<path fill="#0D5D63" d="M1055.2,581h17.2v-46.6h-17.2V581z M1058.9,538.2h9.8v39.2h-9.8V538.2z"/>
	<path fill="#0D5D63" d="M1072.4,343.4h-17.2v28.7h17.2V343.4z M1068.7,368.5h-9.8v-21.3h9.8V368.5z"/>
	<path fill="#0D5D63" d="M572.9,233.9v50h453v-50H572.9z M1022.2,280.2H576.6v-42.6h445.6V280.2z"/>
	<path fill="#0D5D63" d="M670.1,327.8H583v37.9h87.1V327.8z M666.4,362h-79.7v-30.5h79.7V362z"/>
	<path fill="#0D5D63" d="M671.6,376.9h-91v171.4h91V376.9z M667.9,380.6v73.1h-83.6v-73.1H667.9z M667.9,457.3v4.1h-83.6v-4.1H667.9
		z M584.3,544.5v-79.4h83.6v79.4H584.3z"/>
	
		<rect x="728.4" y="360.3" transform="matrix(-0.7071 0.7071 -0.7071 -0.7071 1564.3608 76.2473)" fill="#0D5D63" width="76" height="3.7"/>
	
		<rect x="955.5" y="324.1" transform="matrix(0.7071 0.7071 -0.7071 0.7071 536.5044 -570.9319)" fill="#0D5D63" width="3.7" height="76"/>
	
		<rect x="810.9" y="403.1" transform="matrix(-0.7071 -0.7071 0.7071 -0.7071 1092.9159 1285.7386)" fill="#0D5D63" width="3.7" height="26.8"/>
</g>
</svg>
