<?xml version="1.0" encoding="utf-8"?>
<!-- Generator: Adobe Illustrator 18.0.0, SVG Export Plug-In . SVG Version: 6.00 Build 0)  -->
<!DOCTYPE svg PUBLIC "-//W3C//DTD SVG 1.1//EN" "http://www.w3.org/Graphics/SVG/1.1/DTD/svg11.dtd">
<svg version="1.1" id="Layer_1" xmlns="http://www.w3.org/2000/svg" xmlns:xlink="http://www.w3.org/1999/xlink" x="0px" y="0px"
	 viewBox="0 0 243.1 63.4" enable-background="new 0 0 243.1 63.4" xml:space="preserve">
<g>
	<path fill="#0A5C62" d="M27.3,63.4C10.9,63.4,0,50.7,0,32.8C0,14.7,10.9,2,27.3,2c16.4,0,27.3,12.7,27.3,30.8
		C54.6,50.7,43.7,63.4,27.3,63.4z M35.5,4.8c-2.8-2.2-5.7-2.4-8.3-2.4c-2.6,0-5.6,0.3-8.3,2.4c-5.4,4.2-8.8,11.9-8.8,28
		c0,16,3.4,23.5,8.8,27.8c2.7,2.1,5.7,2.4,8.3,2.4c2.5,0,5.6-0.3,8.3-2.4c5.4-4.2,8.8-11.8,8.8-27.8C44.3,16.7,40.8,9,35.5,4.8z"/>
	<path fill="#0A5C62" d="M100.3,0c8.9,0,12.9,2.8,12.9,6.9c0,2.2-1.6,3.9-3.9,3.9c-2.4,0-4.3-1.7-4.4-4.8c-0.1-1.6,0.1-3.1-0.5-4.1
		c-0.7-1.3-2.5-1.5-4.2-1.5c-3.6,0-5.9,1.3-7.2,3.3C92,5.4,91.4,8,91.4,11.8v12.3h21.2c0.6,0,0.6,0,0.6,0.6c0,1.3-0.1,3.2-0.1,5.6
		V53c0,1.8-0.1,3.7,0.3,5c0.4,2.3,1.3,2.9,3,3.6c0.4,0.2,0.6,0.2,1.3,0.3v0.2H101v-0.2c0.5-0.1,0.8-0.1,1.3-0.3
		c1.7-0.7,2.5-1.3,3-3.6c0.4-1.3,0.3-3.2,0.3-5V35.3c0-1.6,0.1-6-0.1-7.4c-0.3-1.6-0.6-2.2-1.5-2.9c-0.6-0.4-1.2-0.5-1.7-0.6H91.4
		v25.9c0,2.5,0.3,5.7,0.5,7.2c0.5,2.4,1.2,3.1,3.1,3.8c0.8,0.3,1.9,0.4,2.6,0.4v0.4H78.3v-0.4c0.6-0.1,1.3-0.2,2-0.4
		c1.9-0.8,2.6-1.2,3.1-3.6c0.4-1.9,0.4-4.8,0.4-7.4V24.4h-14v26.3c0,2.4,0.2,5.7,0.4,7.2c0.5,2.3,1.1,3,3.1,3.6
		c0.9,0.3,1.3,0.4,1.9,0.4v0.2H57.4v-0.2l1.3-0.4c1.8-0.7,2.4-1.1,3.1-3.5c0.4-1.4,0.3-5.2,0.3-7.3V24.4h-5v-0.4h5v-7.7
		c0-5.3,1.6-9.4,4.2-12.1C68.9,1.4,72.6,0,76.8,0c2.9,0,5.1,0.3,6.8,0.8C85.8,1.5,87.1,2.7,88,4C90.2,2.2,94.3,0,100.3,0z
		 M84.3,10.9c-1.6-0.2-2.8-1.3-3.2-2.8c-0.3-0.8-0.4-1.8-0.4-2.8c-0.2-1.7-0.1-3.1-0.7-3.9c-0.6-0.8-1.6-1.1-3.1-1.1
		c-2.5,0-4.5,1.5-5.7,3.9c-0.9,1.8-1.3,4.1-1.3,6.7v13h14v-7.4C83.7,14.4,83.9,12.5,84.3,10.9z"/>
	<path fill="#0A5C62" d="M136.9,62.9c-4.9,0-9.3-1.9-12.2-4.8c-3.7-3.8-5.1-9.1-5.1-15.5c0-12.2,9.3-19.4,17.4-19.4
		c5.6,0,9.7,2.1,11.3,4c1.3,1.5,1.9,2.9,1.9,4.1c0,2.8-2.1,3.9-3.7,3.9c-3.1,0-4.1-1.9-4.5-4.8c-0.7-5.1-1.5-6.9-5.4-6.9
		c-1.5,0-3.9,0.6-5.4,2.2c-2.1,2.3-3.1,8.3-3.1,15.3c0,8.8,1.1,14.5,3.4,17.9c1.7,2.5,3.9,3.1,5.9,3.1c8.1,0,11.7-7,12.9-12.3
		l0.4,0.1C149.1,57.1,144.4,62.9,136.9,62.9z"/>
	<path fill="#0A5C62" d="M151.4,62.1v-0.2c0.5-0.1,0.8-0.1,1.3-0.3c1.7-0.7,2.5-1.3,3-3.6c0.4-1.3,0.3-3.2,0.3-5V35.3
		c0-1.6,0.1-6-0.1-7.4c-0.3-1.7-0.7-2.3-1.5-2.9c-0.9-0.7-1.8-0.7-2.3-0.8v-0.2h11.1c0.6,0,0.6,0,0.6,0.6c0,1.3-0.1,3.2-0.1,5.6V53
		c0,1.8-0.1,3.7,0.3,5c0.4,2.3,1.3,2.9,3,3.6c0.4,0.2,0.6,0.2,1.3,0.3v0.2H151.4z M159.6,13c-2.1,0-4.7-1.7-4.7-4.5
		c0-2.9,2.6-4.7,4.7-4.7c2.2,0,4.8,1.5,4.8,4.7C164.5,11.6,161.8,13,159.6,13z"/>
	<path fill="#0A5C62" d="M174.5,35.1c0-1.6,0-5.8-0.2-7.2c-0.3-1.7-0.7-2.3-1.4-2.9c-1-0.7-1.8-0.7-2.3-0.8v-0.2h11.2
		c0.5,0,0.5,0.1,0.5,0.5l-0.2,9.2h0.1c1-3.9,3.5-6.6,5.2-7.8c1.9-1.4,4.7-2.7,7.8-2.7c3.6,0,5.8,0.7,7.4,2.7
		c1.2,1.3,2.2,4.3,2.2,8.9v15.9c0,2.5-0.2,5.4,0.3,7.2c0.4,2.4,1.3,3,3,3.6c0.6,0.3,0.8,0.4,1.3,0.4v0.2h-16.6v-0.2
		c0.4-0.1,0.6-0.2,1.3-0.4c1.9-0.7,2.5-1.2,3-3.6c0.4-1.8,0.3-4.7,0.3-7.2v-16c0-4.1-0.1-5.7-1.2-7.1c-0.9-1.3-2.2-2.1-4.8-2.1
		c-4.4,0-8.3,4.3-9,10.3c-0.3,2.2-0.2,4.6-0.2,7.3v7.5c0,2.5-0.1,5.5,0.4,7.4c0.4,2.2,1.1,2.7,3,3.4l1.3,0.4v0.2h-16.7v-0.2l1.3-0.4
		c1.9-0.7,2.5-1.1,3.1-3.5c0.4-1.6,0.2-4.8,0.2-7.3V35.1z"/>
	<path fill="#0A5C62" d="M236.5,62.9c-2.2,0-3.9-0.1-4.9-0.7c-1.2-0.6-2-2.4-1.8-5.7h-0.1c-0.9,3.1-4,6.5-9.8,6.5
		c-5.3,0-10-3.1-10-9.5c0-2.4,0.7-4.3,2.2-5.7c2.8-2.6,6.6-2.8,10.4-4.3c5.1-2,7.4-4.4,7.4-7.1c0-1.3,0.1-5.6,0.1-6.9
		c0-4.8-1.3-5.7-5.1-5.7c-1.9,0-3.1,0.4-3.9,1.3c-0.9,0.9-1.3,2.9-1.3,5.6c0,2.8-1.5,3.9-4,3.9c-2,0-3.6-1.1-3.6-3.4
		c0-1.5,0.5-2.6,1.4-3.7c2-2.5,7.4-4,11.3-4c6.6,0,13.1,2.4,13.1,8.8c0,3-0.2,17.1-0.2,22.5c0,3.9,0.1,5.4,0.9,6.2
		c0.4,0.5,1.2,0.8,2,0.8s1.6-0.2,2.3-0.6v0.2C242.2,62,239.4,62.9,236.5,62.9z M224.2,43.3c-2.5,1.3-3.6,2.2-4.4,3.5
		c-0.9,1.4-1.4,3.9-1.4,6.4c0,5.1,2,7.9,5.6,7.9c0.7,0,1.5-0.1,2.2-0.4c1.9-1,3.7-3.9,3.7-6.7l0.1-15.1
		C228.7,40.7,226.6,42,224.2,43.3z"/>
</g>
</svg>
