<?xml version="1.0" encoding="utf-8"?>
<!-- Generator: Adobe Illustrator 18.0.0, SVG Export Plug-In . SVG Version: 6.00 Build 0)  -->
<!DOCTYPE svg PUBLIC "-//W3C//DTD SVG 1.1//EN" "http://www.w3.org/Graphics/SVG/1.1/DTD/svg11.dtd">
<svg version="1.1" id="Layer_1" xmlns="http://www.w3.org/2000/svg" xmlns:xlink="http://www.w3.org/1999/xlink" x="0px" y="0px"
	 viewBox="0 0 150 106" enable-background="new 0 0 150 106" xml:space="preserve">
<g>
	<path fill="#0D5D63" d="M0,0v106h150V0H0z M149,101.8h-10V1h10V101.8z M138.1,82.3H48.1v-2.8h89.9V82.3z M11.9,4.6h126.2v20.6H11.9
		V4.6z M92.6,78.5V26.1h1.1v52.4H92.6z M91.6,63.8H58.4l22.9-22.9l-0.7-0.7L57,63.8h-8.9V26.1h43.5V63.8z M44.6,75.1v-45l2.5-3.1
		v50.8L44.6,75.1z M43.9,29.4H15.1l-2.7-3.3h34.2L43.9,29.4z M43.7,30.4v62.3H15.4V30.4H43.7z M15.2,93.7h28.6l1,1.1H14.2L15.2,93.7
		z M13.6,95.8h31.8v2.8H13.6V95.8z M46.4,95.3l-1.8-2.2V80.2l2.5,2.7v16.9l-0.8-0.9V95.3z M44.6,78.8v-2.3l2.5,2.7v2.3L44.6,78.8z
		 M48.1,64.9H56l-4.2,4.2l0.7,0.7l4.9-4.9H70V69c-1.1,0.1-2,1-2,2.1c0,1.2,1,2.1,2.1,2.1s2.1-1,2.1-2.1c0-0.9-0.5-1.6-1.2-1.9h0
		v-4.3h20.5v13.7H48.1V64.9z M71.3,71.1c0,0.6-0.5,1.2-1.2,1.2s-1.2-0.5-1.2-1.2c0-0.6,0.5-1.2,1.2-1.2S71.3,70.4,71.3,71.1z
		 M14.4,30.1v63.1l-1.8,2.2v3.6l-0.8,0.9V27L14.4,30.1z M13.4,99.6h32.3l0.9,1H12.5L13.4,99.6z M138.1,78.5H94.6V26.1h43.5v29h-21.1
		l14.4-14.4l-0.7-0.7l-15,15H94.7v1.1h19.8l-12.8,12.8l0.7,0.7l13.5-13.5h0.3V60c-1,0.1-1.8,1-1.8,2.1c0,1.2,1,2.1,2.1,2.1
		c1.2,0,2.1-1,2.1-2.1c0-0.9-0.6-1.7-1.4-2v-3.8h20.8V78.5z M116.5,60.9c0.6,0,1.2,0.5,1.2,1.2c0,0.6-0.5,1.2-1.2,1.2
		c-0.6,0-1.2-0.5-1.2-1.2C115.3,61.4,115.8,60.9,116.5,60.9z M138.1,3.6H11.9V1h126.2V3.6z M11.9,101.6h35.3v3.5H11.9V101.6z
		 M48.1,102.8h89.9v2.3H48.1V102.8z M48.1,101.8V83.2h89.9v18.6H48.1z M10.9,1v100.8H1V1H10.9z M1,102.8h9.9v2.3H1V102.8z
		 M139,105.1v-2.3h10v2.3H139z"/>
	<path fill="#0D5D63" d="M80.7,98.9h24.6V86.9H80.7V98.9z M81.7,87.9h22.7v10H81.7V87.9z"/>
	<path fill="#0D5D63" d="M110,86.9v11.9h24.6V86.9H110z M133.6,97.9H111v-10h22.7V97.9z"/>
	<path fill="#0D5D63" d="M51.6,98.9h24.6V86.9H51.6V98.9z M52.5,87.9h22.7v10H52.5V87.9z"/>
	<path fill="#0D5D63" d="M8.2,10.7H3.7v22.1h4.5V10.7z M7.2,31.8H4.6V11.7h2.6V31.8z"/>
	<path fill="#0D5D63" d="M8.2,48.4H3.7v34.6h4.5V48.4z M7.2,82H4.6V49.3h2.6V82z"/>
	<path fill="#0D5D63" d="M3.7,99h4.5V86.9H3.7V99z M4.6,87.8h2.6v10.2H4.6V87.8z"/>
	<path fill="#0D5D63" d="M8.2,36.9H3.7v7.5h4.5V36.9z M7.2,43.5H4.6v-5.6h2.6V43.5z"/>
	<path fill="#0D5D63" d="M146.2,10.7h-4.5v22.1h4.5V10.7z M145.2,31.8h-2.6V11.7h2.6V31.8z"/>
	<path fill="#0D5D63" d="M146.2,82.9V48.4h-4.5v34.6H146.2z M142.7,49.3h2.6V82h-2.6V49.3z"/>
	<path fill="#0D5D63" d="M141.7,99h4.5V86.9h-4.5V99z M142.7,87.8h2.6v10.2h-2.6V87.8z"/>
	<path fill="#0D5D63" d="M146.2,36.9h-4.5v7.5h4.5V36.9z M145.2,43.5h-2.6v-5.6h2.6V43.5z"/>
	<path fill="#0D5D63" d="M15.6,8.3v13.1H134V8.3H15.6z M133.1,20.4H16.6V9.3h116.5V20.4z"/>
	<path fill="#0D5D63" d="M41.1,32.8H18.3v9.9h22.8V32.8z M40.1,41.8H19.3v-8h20.8V41.8z"/>
	<path fill="#0D5D63" d="M41.4,45.7H17.7v44.8h23.8V45.7z M40.5,46.6v19.1H18.6V46.6H40.5z M40.5,66.7v1.1H18.6v-1.1H40.5z
		 M18.6,89.5V68.7h21.8v20.8H18.6z"/>
	
		<rect x="56.3" y="41.3" transform="matrix(-0.7071 0.7071 -0.7071 -0.7071 142.6028 24.5591)" fill="#0D5D63" width="19.9" height="1"/>
	
		<rect x="115.7" y="31.9" transform="matrix(0.7071 0.7071 -0.7071 0.7071 63.5868 -69.8755)" fill="#0D5D63" width="1" height="19.9"/>
	
		<rect x="77.9" y="52.5" transform="matrix(-0.7071 -0.7071 0.7071 -0.7071 94.1028 151.0424)" fill="#0D5D63" width="1" height="7"/>
</g>
</svg>
