<?xml version="1.0" encoding="utf-8"?>
<!-- Generator: Adobe Illustrator 18.0.0, SVG Export Plug-In . SVG Version: 6.00 Build 0)  -->
<!DOCTYPE svg PUBLIC "-//W3C//DTD SVG 1.1//EN" "http://www.w3.org/Graphics/SVG/1.1/DTD/svg11.dtd">
<svg version="1.1" id="Layer_1" xmlns="http://www.w3.org/2000/svg" xmlns:xlink="http://www.w3.org/1999/xlink" x="0px" y="0px"
	 viewBox="111 250.4 1042.1 270.4" enable-background="new 111 250.4 1042.1 270.4" xml:space="preserve">
<g>
	<path fill="#C7D9C9" d="M227.4,520.8c-70.1,0-116.4-54.1-116.4-130.6c0-76.9,46.3-131.3,116.4-131.3s116.4,54.3,116.4,131.3
		C343.9,466.7,297.5,520.8,227.4,520.8z M262.7,270.8c-11.9-9.2-24.5-10.3-35.2-10.3c-11.1,0-23.7,1.2-35.2,10.3
		c-23,17.9-37.5,51-37.5,119.4c0,68.2,14.6,100.3,37.5,118.6c11.5,8.8,24.1,10.3,35.2,10.3c10.7,0,23.7-1.2,35.2-10.3
		c23-17.9,37.5-50.6,37.5-118.6C300.1,321.7,285.3,288.7,262.7,270.8z"/>
	<path fill="#C7D9C9" d="M539.8,250.4c37.9,0,55.1,11.9,55.1,29.5c0,9.6-6.9,16.9-16.4,16.9c-10.3,0-18.3-7.2-18.7-20.7
		c-0.4-6.9,0.4-13-2.3-17.7c-3.1-5.4-10.7-6.5-17.9-6.5c-15.4,0-25.2,5.8-30.6,14.2c-4.6,7.2-6.9,18.3-6.9,34.5V353h90.4
		c2.7,0,2.7,0,2.7,2.7c0,5.8-0.4,13.8-0.4,23.7v97.2c0,7.7-0.4,15.6,1.2,21.4c1.9,9.9,5.4,12.3,12.7,15.4c1.9,0.8,2.7,0.8,5.4,1.2
		v0.8h-71.2v-0.8c2.3-0.4,3.5-0.4,5.4-1.2c7.2-3.1,10.7-5.4,12.7-15.4c1.5-5.8,1.2-13.8,1.2-21.4v-75.8c0-6.9,0.4-25.6-0.4-31.4
		c-1.2-6.9-2.7-9.6-6.5-12.3c-2.7-1.9-5-2.3-7.2-2.7h-45.6V465c0,10.7,1.2,24.1,2.3,30.6c2.3,10.3,5,13.4,13.4,16
		c3.5,1.2,8.1,1.5,11.1,1.9v1.5h-83v-1.1c2.7-0.4,5.4-0.8,8.4-1.9c8.1-3.5,11.1-5,13.4-15.4c1.9-8.1,1.5-20.7,1.5-31.4V354.5h-59.8
		v112.1c0,10.3,0.8,24.1,1.9,30.6c2.3,9.9,4.6,12.7,13,15.4c3.8,1.2,5.8,1.5,8.1,1.9v0.8h-75.4v-0.8l5.4-1.9c7.7-3.1,10.3-4.6,13-15
		c1.5-6.1,1.2-22.2,1.2-31v-112h-21.4v-1.5h21.4v-32.9c0-22.6,6.9-40.2,17.9-51.6c11.5-11.9,27.2-17.9,45.2-17.9
		c12.3,0,21.8,1.2,29.1,3.5c9.2,3.1,15,8.1,18.7,13.8C496.6,259.7,514.2,250.4,539.8,250.4z M471.4,296.7
		c-6.9-0.8-11.9-5.4-13.8-11.9c-1.2-3.5-1.5-7.7-1.9-11.9c-0.8-7.2-0.4-13-3.1-16.4c-2.7-3.5-6.9-4.6-13.4-4.6
		c-10.7,0-19.1,6.5-24.1,16.9c-3.8,7.7-5.8,17.7-5.8,28.7v55.5h59.8v-31.8C469.1,311.7,469.7,303.6,471.4,296.7z"/>
	<path fill="#C7D9C9" d="M695,518.8c-21,0-39.8-8.1-52-20.4c-15.6-16-21.8-38.7-21.8-66.2c0-52,39.8-82.6,74.3-82.6
		c23.7,0,41.4,8.8,48.3,17.3c5.4,6.5,8.1,12.3,8.1,17.7c0,11.9-8.8,16.4-15.6,16.4c-13,0-17.7-8.1-19.1-20.4
		c-3.1-21.8-6.5-29.5-23-29.5c-6.5,0-16.9,2.7-23,9.6c-8.8,9.9-13.4,35.2-13.4,65.1c0,37.5,4.6,62,14.6,76.6
		c7.2,10.7,16.4,13.4,25.2,13.4c34.5,0,49.7-29.9,55.1-52.4l1.5,0.4C747.1,494,727.1,518.8,695,518.8z"/>
	<path fill="#C7D9C9" d="M760.8,515.4v-0.8c2.3-0.4,3.5-0.4,5.4-1.2c7.2-3.1,10.7-5.4,12.7-15.4c1.5-5.8,1.2-13.8,1.2-21.4v-75.8
		c0-6.9,0.4-25.6-0.4-31.4c-1.2-7.2-3.1-9.9-6.5-12.3c-3.8-3.1-7.7-3.1-9.9-3.5v-0.8h47.5c2.7,0,2.7,0,2.7,2.7
		c0,5.8-0.4,13.8-0.4,23.7v97.2c0,7.7-0.4,15.6,1.2,21.4c1.9,9.9,5.4,12.3,12.7,15.4c1.9,0.8,2.7,0.8,5.4,1.2v0.8h-71.4L760.8,515.4
		L760.8,515.4z M796,305.9c-8.8,0-19.9-7.2-19.9-19.1c0-12.3,11.1-19.9,19.9-19.9c9.2,0,20.7,6.5,20.7,19.9
		C816.7,299.8,805.2,305.9,796,305.9z"/>
	<path fill="#C7D9C9" d="M858,400.1c0-6.9,0-24.9-0.8-30.6c-1.2-7.2-3.1-9.9-6.1-12.3c-4.2-3.1-7.7-3.1-9.9-3.5v-0.8h47.9
		c2.3,0,2.3,0.4,2.3,2.3l-0.8,39.1h0.4c4.2-16.9,15-27.9,22.2-33.3c8.1-6.1,19.9-11.5,33.3-11.5c15.4,0,24.9,3.1,31.8,11.5
		c5,5.8,9.6,18.3,9.6,37.9v67.8c0,10.7-0.8,23,1.2,30.6c1.9,10.3,5.4,12.7,12.7,15.4c2.7,1.2,3.5,1.5,5.4,1.9v0.8h-70.8v-0.8
		c1.9-0.4,2.7-0.8,5.4-1.9c8.1-3.1,10.7-5,12.7-15.4c1.9-7.7,1.2-19.9,1.2-30.6v-68.2c0-17.7-0.4-24.5-5-30.2
		c-3.8-5.4-9.2-8.8-20.7-8.8c-18.7,0-35.6,18.3-38.3,44c-1.2,9.2-0.8,19.5-0.8,31v32.2c0,10.7-0.4,23.4,1.5,31.4
		c1.9,9.6,4.6,11.5,12.7,14.6l5.4,1.9v0.8h-71.7v-0.8l5.4-1.9c8.1-3.1,10.7-4.6,13-15c1.5-6.9,0.8-20.4,0.8-31L858,400.1L858,400.1
		L858,400.1z"/>
	<path fill="#C7D9C9" d="M1125.3,518.8c-9.2,0-16.4-0.4-21-3.1c-5-2.7-8.4-10.3-7.7-24.5h-0.4c-3.8,13-17.3,27.5-41.8,27.5
		c-22.6,0-42.5-13-42.5-40.5c0-10.3,3.1-18.3,9.6-24.5c11.9-11.1,27.9-11.9,44.4-18.3c21.8-8.4,31.8-18.7,31.8-30.2
		c0-5.8,0.4-23.7,0.4-29.5c0-20.7-5.4-24.1-21.8-24.1c-8.1,0-13,1.5-16.9,5.4c-3.8,3.8-5.4,12.3-5.4,23.7c0,11.9-6.5,16.9-17.3,16.9
		c-8.4,0-15.4-4.6-15.4-14.6c0-6.5,2.3-11.1,6.1-15.6c8.4-10.7,31.8-17.3,48.3-17.3c28.3,0,55.9,10.3,55.9,37.5
		c0,12.7-0.8,73.1-0.8,96.2c0,16.9,0.4,23,3.8,26.5c1.9,2.3,5,3.5,8.4,3.5c3.4,0,6.9-0.8,9.9-2.7v0.8
		C1149.4,515,1137.6,518.8,1125.3,518.8z M1072.5,435c-10.7,5.8-15.4,9.6-18.7,15c-3.8,6.1-6.1,16.4-6.1,27.2
		c0,21.8,8.4,33.7,23.7,33.7c3.1,0,6.5-0.4,9.6-1.9c8.1-4.2,15.6-16.4,15.6-28.7l0.4-64.3C1091.6,424.3,1082.8,429.7,1072.5,435z"/>
</g>
</svg>
