<?xml version="1.0" encoding="utf-8"?>
<!-- Generator: Adobe Illustrator 18.0.0, SVG Export Plug-In . SVG Version: 6.00 Build 0)  -->
<!DOCTYPE svg PUBLIC "-//W3C//DTD SVG 1.1//EN" "http://www.w3.org/Graphics/SVG/1.1/DTD/svg11.dtd">
<svg version="1.1" id="Layer_1" xmlns="http://www.w3.org/2000/svg" xmlns:xlink="http://www.w3.org/1999/xlink" x="0px" y="0px"
	 viewBox="23 248.4 1045.2 271.1" enable-background="new 23 248.4 1045.2 271.1" xml:space="preserve">
<g>
	<path fill="#0A5C62" d="M139.8,519.6C69.5,519.6,23,465.4,23,388.6c0-77.2,46.5-131.7,116.7-131.7s116.7,54.5,116.7,131.7
		C256.5,465.4,210,519.6,139.8,519.6z M175.1,268.8c-11.9-9.2-24.6-10.4-35.3-10.4c-11.1,0-23.8,1.2-35.3,10.4
		c-23,18-37.6,51.1-37.6,119.8c0,68.4,14.6,100.6,37.6,119c11.5,8.8,24.2,10.4,35.3,10.4c10.8,0,23.8-1.2,35.3-10.4
		c23-18,37.6-50.7,37.6-119C212.7,319.9,197.8,286.8,175.1,268.8z"/>
	<path fill="#0A5C62" d="M453.1,248.4c38,0,55.3,11.9,55.3,29.6c0,9.6-6.9,16.9-16.5,16.9c-10.4,0-18.4-7.3-18.8-20.7
		c-0.4-6.9,0.4-13.1-2.3-17.7c-3.1-5.4-10.8-6.5-18-6.5c-15.4,0-25.3,5.8-30.7,14.2c-4.6,7.3-6.9,18.4-6.9,34.6v52.6h90.6
		c2.7,0,2.7,0,2.7,2.7c0,5.8-0.4,13.8-0.4,23.8v97.5c0,7.7-0.4,15.7,1.2,21.5c1.9,10,5.4,12.3,12.7,15.4c1.9,0.8,2.7,0.8,5.4,1.2
		v0.8h-71.4v-0.8c2.3-0.4,3.5-0.4,5.4-1.2c7.3-3.1,10.8-5.4,12.7-15.4c1.5-5.8,1.2-13.8,1.2-21.5v-76c0-6.9,0.4-25.7-0.4-31.5
		c-1.2-6.9-2.7-9.6-6.5-12.3c-2.7-1.9-5-2.3-7.3-2.7h-45.7v111c0,10.8,1.2,24.2,2.3,30.7c2.3,10.4,5,13.4,13.4,16.1
		c3.5,1.2,8.1,1.5,11.1,1.9v1.5h-83.3v-1.5c2.7-0.4,5.4-0.8,8.4-1.9c8.1-3.5,11.1-5,13.4-15.4c1.9-8.1,1.5-20.7,1.5-31.5v-111h-59.9
		v112.5c0,10.4,0.8,24.2,1.9,30.7c2.3,10,4.6,12.7,13.1,15.4c3.8,1.2,5.8,1.5,8.1,1.9v0.8h-75.6v-0.8l5.4-1.9
		c7.7-3.1,10.4-4.6,13.1-15c1.5-6.1,1.2-22.3,1.2-31.1V352.9h-21.5v-1.5h21.5v-33c0-22.7,6.9-40.3,18-51.8
		c11.5-11.9,27.3-18,45.3-18c12.3,0,21.9,1.2,29.2,3.5c9.2,3.1,15,8.1,18.8,13.8C409.7,257.7,427.4,248.4,453.1,248.4z M384.4,294.9
		c-6.9-0.8-11.9-5.4-13.8-11.9c-1.2-3.5-1.5-7.7-1.9-11.9c-0.8-7.3-0.4-13.1-3.1-16.5c-2.7-3.5-6.9-4.6-13.4-4.6
		c-10.8,0-19.2,6.5-24.2,16.9c-3.8,7.7-5.8,17.7-5.8,28.8v55.7h59.9v-31.9C382.1,309.9,382.8,301.8,384.4,294.9z"/>
	<path fill="#0A5C62" d="M608.6,517.6c-21.1,0-39.9-8.1-52.2-20.4c-15.7-16.1-21.9-38.8-21.9-66.4c0-52.2,39.9-82.9,74.5-82.9
		c23.8,0,41.5,8.8,48.4,17.3c5.4,6.5,8.1,12.3,8.1,17.7c0,11.9-8.8,16.5-15.7,16.5c-13.1,0-17.7-8.1-19.2-20.4
		c-3.1-21.9-6.5-29.6-23-29.6c-6.5,0-16.9,2.7-23,9.6c-8.8,10-13.4,35.3-13.4,65.3c0,37.6,4.6,62.2,14.6,76.8
		c7.3,10.8,16.5,13.4,25.3,13.4c34.6,0,49.9-30,55.3-52.6l1.5,0.4C660.9,492.7,640.9,517.6,608.6,517.6z"/>
	<path fill="#0A5C62" d="M674.7,514.2v-0.8c2.3-0.4,3.5-0.4,5.4-1.2c7.3-3.1,10.8-5.4,12.7-15.4c1.5-5.8,1.2-13.8,1.2-21.5v-76
		c0-6.9,0.4-25.7-0.4-31.5c-1.2-7.3-3.1-10-6.5-12.3c-3.8-3.1-7.7-3.1-10-3.5v-0.8h47.6c2.7,0,2.7,0,2.7,2.7
		c0,5.8-0.4,13.8-0.4,23.8v97.5c0,7.7-0.4,15.7,1.2,21.5c1.9,10,5.4,12.3,12.7,15.4c1.9,0.8,2.7,0.8,5.4,1.2v0.8H674.7z M710,304.1
		c-8.8,0-20-7.3-20-19.2c0-12.3,11.1-20,20-20c9.2,0,20.7,6.5,20.7,20C730.7,298,719.2,304.1,710,304.1z"/>
	<path fill="#0A5C62" d="M772.2,398.6c0-6.9,0-25-0.8-30.7c-1.2-7.3-3.1-10-6.1-12.3c-4.2-3.1-7.7-3.1-10-3.5v-0.8h48
		c2.3,0,2.3,0.4,2.3,2.3l-0.8,39.2h0.4c4.2-16.9,15-28,22.3-33.4c8.1-6.1,20-11.5,33.4-11.5c15.4,0,25,3.1,31.9,11.5
		c5,5.8,9.6,18.4,9.6,38v68c0,10.8-0.8,23,1.2,30.7c1.9,10.4,5.4,12.7,12.7,15.4c2.7,1.2,3.5,1.5,5.4,1.9v0.8h-71v-0.8
		c1.9-0.4,2.7-0.8,5.4-1.9c8.1-3.1,10.8-5,12.7-15.4c1.9-7.7,1.2-20,1.2-30.7v-68.4c0-17.7-0.4-24.6-5-30.3
		c-3.8-5.4-9.2-8.8-20.7-8.8c-18.8,0-35.7,18.4-38.4,44.2c-1.2,9.2-0.8,19.6-0.8,31.1v32.3c0,10.8-0.4,23.4,1.5,31.5
		c1.9,9.6,4.6,11.5,12.7,14.6l5.4,1.9v0.8H753v-0.8l5.4-1.9c8.1-3.1,10.8-4.6,13.1-15c1.5-6.9,0.8-20.4,0.8-31.1V398.6z"/>
	<path fill="#0A5C62" d="M1040.2,517.6c-9.2,0-16.5-0.4-21.1-3.1c-5-2.7-8.4-10.4-7.7-24.6h-0.4c-3.8,13.1-17.3,27.6-41.9,27.6
		c-22.7,0-42.6-13.1-42.6-40.7c0-10.4,3.1-18.4,9.6-24.6c11.9-11.1,28-11.9,44.5-18.4c21.9-8.4,31.9-18.8,31.9-30.3
		c0-5.8,0.4-23.8,0.4-29.6c0-20.7-5.4-24.2-21.9-24.2c-8.1,0-13.1,1.5-16.9,5.4c-3.8,3.8-5.4,12.3-5.4,23.8
		c0,11.9-6.5,16.9-17.3,16.9c-8.4,0-15.4-4.6-15.4-14.6c0-6.5,2.3-11.1,6.1-15.7c8.4-10.8,31.9-17.3,48.4-17.3
		c28.4,0,56.1,10.4,56.1,37.6c0,12.7-0.8,73.3-0.8,96.4c0,16.9,0.4,23,3.8,26.5c1.9,2.3,5,3.5,8.4,3.5s6.9-0.8,10-2.7v0.8
		C1064.4,513.8,1052.5,517.6,1040.2,517.6z M987.3,433.5c-10.8,5.8-15.4,9.6-18.8,15c-3.8,6.1-6.1,16.5-6.1,27.3
		c0,21.9,8.4,33.8,23.8,33.8c3.1,0,6.5-0.4,9.6-1.9c8.1-4.2,15.7-16.5,15.7-28.8l0.4-64.5C1006.5,422.8,997.6,428.2,987.3,433.5z"/>
</g>
</svg>
