<?xml version="1.0" encoding="utf-8"?>
<!-- Generator: Adobe Illustrator 18.0.0, SVG Export Plug-In . SVG Version: 6.00 Build 0)  -->
<!DOCTYPE svg PUBLIC "-//W3C//DTD SVG 1.1//EN" "http://www.w3.org/Graphics/SVG/1.1/DTD/svg11.dtd">
<svg version="1.1" id="Layer_1" xmlns="http://www.w3.org/2000/svg" xmlns:xlink="http://www.w3.org/1999/xlink" x="0px" y="0px"
	 viewBox="0 0 1280 800" enable-background="new 0 0 1280 800" xml:space="preserve">
<g>
	<path fill="#C7D9C9" d="M74.1,0v800h1131.9V0H74.1z M1198.4,767.6h-75.7V7.6h75.7V767.6z M1115.1,620.5H437.3V600h678.9v20.5
		H1115.1z M163.8,34.6h952.4v155.7H163.8V34.6z M772.4,592.4V196.8h7.6v395.7H772.4z M764.9,481.1H515.1l173-173l-5.4-5.4
		L504.3,481.1h-67V196.8h327.6L764.9,481.1L764.9,481.1z M410.3,566.5V227l19.5-23.8v382.7L410.3,566.5z M404.9,221.6H187.6
		L167,196.8h258.4L404.9,221.6z M403.8,229.2v470.3H189.7V229.2H403.8z M188.6,707h216.2l7.6,8.6H181.1L188.6,707z M176.8,722.2h240
		v21.6h-240V722.2z M424.3,718.9l-14.1-16.2v-97.3l19.5,20.5v127.6l-5.4-7.6V718.9z M410.3,594.6v-17.3l19.5,20.5v17.3L410.3,594.6z
		 M437.3,489.7h59.5l-32.4,32.4l5.4,5.4l36.8-36.8h95.1v31.4c-8.6,0-15.1,7.6-15.1,16.2c0,8.6,7.6,16.2,16.2,16.2
		c8.6,0,16.2-7.6,16.2-16.2c0-6.5-4.3-11.9-9.7-15.1l0,0v-32.4h154.6v102.7H437.3V489.7z M611.4,536.2c0,5.4-4.3,8.6-8.6,8.6
		s-8.6-4.3-8.6-8.6c0-5.4,4.3-8.6,8.6-8.6S611.4,531.9,611.4,536.2z M183.2,227v475.7l-13,16.2v27l-5.4,6.5V203.2L183.2,227z
		 M174.6,751.4h244.3l6.5,7.6H168.1L174.6,751.4z M1115.1,592.4H787.6V196.8h327.6v219.5H956.2l108.1-108.1l-5.4-5.4L945.4,416.2
		H788.6v7.6h149.2l-97.3,97.3l5.4,5.4l101.6-101.6h2.2V453c-7.6,1.1-14.1,7.6-14.1,16.2c0,8.6,7.6,16.2,16.2,16.2
		s16.2-7.6,16.2-16.2c0-6.5-4.3-13-10.8-15.1v-29.2h156.8v167.6H1115.1z M953,459.5c5.4,0,8.6,4.3,8.6,8.6c0,5.4-4.3,8.6-8.6,8.6
		c-5.4,0-8.6-4.3-8.6-8.6C944.3,463.8,947.6,459.5,953,459.5z M1115.1,27H163.8V7.6h952.4V27H1115.1z M163.8,766.5h265.9v25.9H163.8
		V766.5z M437.3,775.1h678.9v17.3H437.3V775.1z M437.3,767.6V627h678.9v140.5H437.3z M156.2,7.6v760H81.6V7.6H156.2z M81.6,775.1
		h74.6v17.3H81.6V775.1z M1122.7,792.4v-17.3h75.7v17.3H1122.7z"/>
	<path fill="#C7D9C9" d="M682.7,745.9h185.9v-89.7H682.7V745.9z M690.3,662.7h170.8v75.7H690.3V662.7z"/>
	<path fill="#C7D9C9" d="M904.3,656.2v89.7h185.9v-89.7H904.3z M1082.7,738.4H910.8v-75.7h170.8v75.7H1082.7z"/>
	<path fill="#C7D9C9" d="M463.2,745.9h185.9v-89.7H463.2V745.9z M470.8,662.7h170.8v75.7H470.8V662.7z"/>
	<path fill="#C7D9C9" d="M135.7,81.1h-33.5v166.5h33.5V81.1z M128.1,240h-19.5V87.6h19.5V240z"/>
	<path fill="#C7D9C9" d="M135.7,364.3h-33.5v260.5h33.5V364.3z M128.1,618.4h-19.5V371.9h19.5V618.4z"/>
	<path fill="#C7D9C9" d="M102.2,747h33.5v-91.9h-33.5V747z M108.6,662.7h19.5v76.8h-19.5V662.7z"/>
	<path fill="#C7D9C9" d="M135.7,278.9h-33.5v56.2h33.5V278.9z M128.1,327.6h-19.5v-42.2h19.5V327.6z"/>
	<path fill="#C7D9C9" d="M1176.8,81.1h-33.5v166.5h33.5V81.1z M1170.3,240h-19.5V87.6h19.5V240z"/>
	<path fill="#C7D9C9" d="M1176.8,625.9V364.3h-33.5v260.5h33.5V625.9z M1150.8,371.9h19.5v246.5h-19.5V371.9z"/>
	<path fill="#C7D9C9" d="M1143.2,747h33.5v-91.9h-33.5V747z M1150.8,662.7h19.5v76.8h-19.5V662.7z"/>
	<path fill="#C7D9C9" d="M1176.8,278.9h-33.5v56.2h33.5V278.9z M1170.3,327.6h-19.5v-42.2h19.5V327.6z"/>
	<path fill="#C7D9C9" d="M191.9,62.7v98.4h893V62.7H191.9z M1078.4,153.5H199.5V70.3h878.9V153.5z"/>
	<path fill="#C7D9C9" d="M383.2,247.6H212.4v74.6h171.9v-74.6H383.2z M376.8,315.7H218.9v-60.5h157.8V315.7z"/>
	<path fill="#C7D9C9" d="M386.5,344.9H207v338.4h179.5L386.5,344.9L386.5,344.9z M378.9,351.4v143.8H214.6V351.4H378.9z
		 M378.9,502.7v7.6H214.6v-7.6H378.9z M214.6,674.6V518.9h164.3v156.8H214.6V674.6z"/>
	
		<rect x="498.3" y="312.2" transform="matrix(0.7071 -0.7071 0.7071 0.7071 -55.4742 498.0607)" fill="#C7D9C9" width="150.3" height="7.6"/>
	
		<rect x="946.7" y="240.1" transform="matrix(-0.7071 -0.7071 0.7071 -0.7071 1399.6753 1210.2859)" fill="#C7D9C9" width="7.6" height="150.3"/>
	
		<rect x="661.7" y="395.9" transform="matrix(0.7071 0.7071 -0.7071 0.7071 493.6212 -346.8394)" fill="#C7D9C9" width="7.6" height="53"/>
</g>
</svg>
