<?xml version="1.0" encoding="utf-8"?>
<!-- Generator: Adobe Illustrator 18.0.0, SVG Export Plug-In . SVG Version: 6.00 Build 0)  -->
<!DOCTYPE svg PUBLIC "-//W3C//DTD SVG 1.1//EN" "http://www.w3.org/Graphics/SVG/1.1/DTD/svg11.dtd">
<svg version="1.1" id="Layer_1" xmlns="http://www.w3.org/2000/svg" xmlns:xlink="http://www.w3.org/1999/xlink" x="0px" y="0px"
	 viewBox="0 0 104.7 74" enable-background="new 0 0 104.7 74" xml:space="preserve">
<g>
	<path fill="#0D5D63" d="M0,0v74h104.7V0H0z M104,71h-7V0.7h7V71z M96.3,57.4H33.6v-1.9h62.8V57.4z M8.3,3.2h88.1v14.4H8.3V3.2z
		 M64.6,54.8V18.2h0.7v36.6H64.6z M63.9,44.5H40.8l16-16L56.3,28L39.8,44.5h-6.2V18.2h30.3V44.5z M31.1,52.4V21l1.8-2.2v35.4
		L31.1,52.4z M30.6,20.5H10.5l-1.9-2.3h23.9L30.6,20.5z M30.5,21.2v43.5H10.7V21.2H30.5z M10.6,65.4h20l0.7,0.8H9.9L10.6,65.4z
		 M9.5,66.8h22.2v2H9.5V66.8z M32.4,66.5L31.1,65v-9l1.8,1.9v11.8L32.4,69V66.5z M31.1,55v-1.6l1.8,1.9v1.6L31.1,55z M33.6,45.3h5.5
		l-3,3l0.5,0.5l3.4-3.4h8.8v2.9c-0.8,0-1.4,0.7-1.4,1.5c0,0.8,0.7,1.5,1.5,1.5c0.8,0,1.5-0.7,1.5-1.5c0-0.6-0.4-1.1-0.9-1.4h0v-3
		h14.3v9.5H33.6V45.3z M49.7,49.6c0,0.5-0.4,0.8-0.8,0.8s-0.8-0.4-0.8-0.8c0-0.5,0.4-0.8,0.8-0.8S49.7,49.2,49.7,49.6z M10.1,21v44
		l-1.2,1.5V69l-0.5,0.6V18.8L10.1,21z M9.3,69.5h22.6l0.6,0.7H8.7L9.3,69.5z M96.3,54.8H66V18.2h30.3v20.3H81.6l10-10L91.1,28
		L80.6,38.5H66.1v0.7h13.8l-9,9l0.5,0.5l9.4-9.4h0.2v2.6c-0.7,0.1-1.3,0.7-1.3,1.5c0,0.8,0.7,1.5,1.5,1.5c0.8,0,1.5-0.7,1.5-1.5
		c0-0.6-0.4-1.2-1-1.4v-2.7h14.5V54.8z M81.3,42.5c0.5,0,0.8,0.4,0.8,0.8c0,0.5-0.4,0.8-0.8,0.8c-0.5,0-0.8-0.4-0.8-0.8
		C80.5,42.9,80.8,42.5,81.3,42.5z M96.3,2.5H8.3V0.7h88.1V2.5z M8.3,70.9h24.6v2.4H8.3V70.9z M33.6,71.7h62.8v1.6H33.6V71.7z
		 M33.6,71v-13h62.8v13H33.6z M7.6,0.7V71H0.7V0.7H7.6z M0.7,71.7h6.9v1.6H0.7V71.7z M97,73.3v-1.6h7v1.6H97z"/>
	<path fill="#0D5D63" d="M56.3,69h17.2v-8.3H56.3V69z M57,61.3h15.8v7H57V61.3z"/>
	<path fill="#0D5D63" d="M76.8,60.7V69h17.2v-8.3H76.8z M93.3,68.3H77.4v-7h15.8V68.3z"/>
	<path fill="#0D5D63" d="M36,69h17.2v-8.3H36V69z M36.7,61.3h15.8v7H36.7V61.3z"/>
	<path fill="#0D5D63" d="M5.7,7.5H2.6v15.4h3.1V7.5z M5,22.2H3.2V8.1H5V22.2z"/>
	<path fill="#0D5D63" d="M5.7,33.7H2.6v24.1h3.1V33.7z M5,57.2H3.2V34.4H5V57.2z"/>
	<path fill="#0D5D63" d="M2.6,69.1h3.1v-8.5H2.6V69.1z M3.2,61.3H5v7.1H3.2V61.3z"/>
	<path fill="#0D5D63" d="M5.7,25.8H2.6V31h3.1V25.8z M5,30.3H3.2v-3.9H5V30.3z"/>
	<path fill="#0D5D63" d="M102,7.5h-3.1v15.4h3.1V7.5z M101.4,22.2h-1.8V8.1h1.8V22.2z"/>
	<path fill="#0D5D63" d="M102,57.9V33.7h-3.1v24.1H102z M99.6,34.4h1.8v22.8h-1.8V34.4z"/>
	<path fill="#0D5D63" d="M98.9,69.1h3.1v-8.5h-3.1V69.1z M99.6,61.3h1.8v7.1h-1.8V61.3z"/>
	<path fill="#0D5D63" d="M102,25.8h-3.1V31h3.1V25.8z M101.4,30.3h-1.8v-3.9h1.8V30.3z"/>
	<path fill="#0D5D63" d="M10.9,5.8v9.1h82.6V5.8H10.9z M92.9,14.2H11.6V6.5h81.3V14.2z"/>
	<path fill="#0D5D63" d="M28.6,22.9H12.8v6.9h15.9V22.9z M28,29.2H13.4v-5.6H28V29.2z"/>
	<path fill="#0D5D63" d="M28.9,31.9H12.3v31.3h16.6V31.9z M28.2,32.5v13.3H13V32.5H28.2z M28.2,46.5v0.7H13v-0.7H28.2z M13,62.4V48
		h15.2v14.5H13z"/>
	
		<rect x="39.3" y="28.8" transform="matrix(-0.7071 0.7071 -0.7071 -0.7071 99.5118 17.138)" fill="#0D5D63" width="13.9" height="0.7"/>
	
		<rect x="80.7" y="22.2" transform="matrix(0.7071 0.7071 -0.7071 0.7071 44.3724 -48.7608)" fill="#0D5D63" width="0.7" height="13.9"/>
	
		<rect x="54.3" y="36.7" transform="matrix(-0.7071 -0.7071 0.7071 -0.7071 65.6672 105.4011)" fill="#0D5D63" width="0.7" height="4.9"/>
</g>
</svg>
